<svg width="885" height="526" viewBox="0 0 885 526" fill="none" xmlns="http://www.w3.org/2000/svg">
<rect width="885" height="526" fill="#CBE8EA"/>
<path d="M43.3516 484.919C43.7219 498.267 46.0377 511.497 50.2307 524.221C50.3237 524.516 50.4269 524.807 50.5273 525.102H76.197C76.17 524.838 76.1421 524.542 76.1152 524.221C74.4037 505.222 84.1815 390.968 95.9802 371.194C94.9465 372.798 41.3612 424.551 43.3516 484.919Z" fill="#7C7B7B"/>
<path d="M45.2778 524.221C45.4925 524.516 45.7156 524.812 45.9443 525.102H65.2023C65.0564 524.851 64.8872 524.556 64.6911 524.221C61.5099 518.677 52.0937 502.102 43.3534 484.919C33.9643 466.453 25.343 447.288 26.069 440.351C25.844 441.914 19.3441 489.608 45.2778 524.221Z" fill="#7C7B7B"/>
<path d="M605.455 108.231C606.189 109.986 607.313 111.564 608.748 112.853C610.183 114.143 611.892 115.113 613.757 115.696C615.622 116.279 617.597 116.459 619.542 116.225C621.487 115.991 623.355 115.349 625.015 114.342L662.181 143.128L664.482 119.325L628.836 95.6384C626.899 93.058 624.05 91.253 620.828 90.5653C617.606 89.8777 614.234 90.3552 611.352 91.9075C608.47 93.4597 606.278 95.9787 605.191 98.9873C604.104 101.996 604.198 105.285 605.455 108.231V108.231Z" fill="#9F616A"/>
<path d="M663.011 117.09L649.139 107.626L633.405 125.179L651.708 135.652L663.011 117.09Z" fill="#4ECB71"/>
<path d="M659.973 110.672L706.721 128.04L751.723 99.5872C756.374 96.6466 761.974 95.4408 767.478 96.195C772.981 96.9491 778.013 99.6117 781.633 103.686C785.253 107.759 787.213 112.966 787.148 118.333C787.083 123.701 784.998 128.862 781.281 132.853L780.878 133.284L711.664 169.116L636.061 135.767L659.973 110.672Z" fill="#7C7B7B"/>
<path d="M646.794 523.307H159.672L177.335 190.294H253.564L323.856 237.867H664.457L646.794 523.307Z" fill="#7C7B7B"/>
<path d="M527.55 421.754L246 309.797C245.016 309.404 244.233 308.65 243.824 307.701C243.414 306.752 243.411 305.684 243.816 304.733L371.391 5.62113C371.798 4.67072 372.579 3.91488 373.562 3.51942C374.545 3.12396 375.65 3.12117 376.635 3.51167L658.185 115.469C659.17 115.862 659.952 116.615 660.362 117.565C660.772 118.514 660.774 119.581 660.37 120.533L532.794 419.645C532.388 420.595 531.607 421.351 530.624 421.746C529.641 422.142 528.536 422.145 527.55 421.754V421.754Z" fill="white"/>
<path d="M527.55 421.754L246 309.797C245.016 309.404 244.233 308.65 243.824 307.701C243.414 306.752 243.411 305.684 243.816 304.733L371.391 5.62113C371.798 4.67072 372.579 3.91488 373.562 3.51942C374.545 3.12396 375.65 3.12117 376.635 3.51167L658.185 115.469C659.17 115.862 659.952 116.615 660.362 117.565C660.772 118.514 660.774 119.581 660.37 120.533L532.794 419.645C532.388 420.595 531.607 421.351 530.624 421.746C529.641 422.142 528.536 422.145 527.55 421.754V421.754ZM376.024 4.94626C375.432 4.71193 374.769 4.71358 374.179 4.95086C373.589 5.18815 373.121 5.64167 372.877 6.21194L245.301 305.324C245.059 305.895 245.061 306.535 245.306 307.105C245.552 307.674 246.022 308.126 246.612 308.362L528.162 420.319C528.753 420.554 529.417 420.552 530.006 420.315C530.596 420.078 531.065 419.624 531.309 419.054L658.884 119.942C659.127 119.371 659.125 118.73 658.879 118.161C658.634 117.591 658.164 117.139 657.573 116.904L376.024 4.94626Z" fill="#3F3D56"/>
<path d="M455.544 151.576L385.713 123.809C384.729 123.416 383.946 122.662 383.537 121.713C383.127 120.764 383.124 119.696 383.529 118.745L412.287 51.3194C412.693 50.369 413.474 49.6132 414.457 49.2177C415.44 48.8223 416.546 48.8195 417.531 49.21L487.361 76.9778C488.345 77.3704 489.128 78.1241 489.538 79.0733C489.947 80.0226 489.95 81.0899 489.546 82.0413L460.788 149.467C460.381 150.417 459.601 151.173 458.617 151.569C457.634 151.964 456.529 151.967 455.544 151.576V151.576ZM416.919 50.6446C416.328 50.4102 415.665 50.4119 415.075 50.6492C414.485 50.8865 414.016 51.34 413.772 51.9102L385.014 119.336C384.772 119.907 384.773 120.547 385.019 121.117C385.265 121.686 385.735 122.138 386.325 122.374L456.156 150.142C456.747 150.376 457.41 150.375 458 150.137C458.59 149.9 459.058 149.446 459.302 148.876L488.06 81.4504C488.303 80.8797 488.301 80.2392 488.055 79.6697C487.81 79.1001 487.34 78.6479 486.749 78.4123L416.919 50.6446Z" fill="#F2F2F2"/>
<path d="M431.968 151.849L362.137 124.082C361.252 123.728 360.547 123.05 360.178 122.196C359.81 121.341 359.807 120.381 360.171 119.525L388.929 52.0988C389.295 51.2434 389.998 50.5631 390.883 50.2072C391.767 49.8513 392.762 49.8488 393.649 50.2003L463.479 77.9681C464.365 78.3215 465.07 78.9997 465.438 79.8541C465.807 80.7084 465.81 81.669 465.446 82.5252L436.688 149.951C436.322 150.806 435.619 151.487 434.734 151.843C433.849 152.198 432.855 152.201 431.968 151.849V151.849Z" fill="#7C7B7B"/>
<path d="M566.47 243.925L348.064 157.077C347.625 156.903 347.226 156.646 346.89 156.323C346.554 155.999 346.286 155.615 346.104 155.192C345.921 154.769 345.827 154.315 345.826 153.857C345.825 153.398 345.917 152.944 346.098 152.52C346.279 152.096 346.544 151.711 346.879 151.386C347.215 151.061 347.613 150.803 348.051 150.627C348.489 150.451 348.959 150.36 349.434 150.359C349.909 150.358 350.379 150.447 350.818 150.622L569.223 237.47C570.11 237.822 570.815 238.501 571.184 239.355C571.553 240.21 571.555 241.171 571.19 242.027C570.824 242.883 570.122 243.564 569.237 243.92C568.352 244.276 567.356 244.278 566.47 243.925V243.925Z" fill="#CCCCCC"/>
<path d="M504.242 245.188L338.58 179.313C338.141 179.139 337.742 178.883 337.406 178.559C337.069 178.236 336.802 177.851 336.62 177.428C336.437 177.005 336.343 176.551 336.342 176.093C336.341 175.634 336.433 175.18 336.614 174.756C336.795 174.332 337.06 173.947 337.395 173.622C337.731 173.297 338.129 173.04 338.567 172.863C339.005 172.687 339.475 172.596 339.95 172.595C340.425 172.594 340.895 172.683 341.334 172.858L506.995 238.732C507.882 239.085 508.587 239.763 508.956 240.618C509.324 241.472 509.326 242.433 508.961 243.29C508.596 244.146 507.894 244.827 507.009 245.183C506.124 245.539 505.128 245.541 504.242 245.188V245.188Z" fill="#CCCCCC"/>
<path d="M600.604 161.858L504.03 123.456C503.591 123.282 503.192 123.025 502.855 122.702C502.519 122.378 502.252 121.994 502.069 121.571C501.887 121.148 501.792 120.694 501.791 120.235C501.79 119.777 501.883 119.323 502.064 118.899C502.244 118.475 502.51 118.09 502.845 117.765C503.18 117.44 503.578 117.182 504.016 117.006C504.455 116.83 504.924 116.738 505.399 116.738C505.874 116.737 506.344 116.826 506.783 117.001L603.357 155.403C604.244 155.755 604.949 156.434 605.318 157.288C605.686 158.143 605.688 159.104 605.323 159.96C604.958 160.816 604.256 161.497 603.371 161.853C602.486 162.209 601.49 162.211 600.604 161.858V161.858Z" fill="#CCCCCC"/>
<path d="M567.018 174.511L494.546 145.692C493.659 145.34 492.954 144.662 492.585 143.807C492.217 142.952 492.215 141.991 492.58 141.135C492.945 140.279 493.647 139.598 494.532 139.242C495.417 138.886 496.413 138.884 497.299 139.237L569.772 168.055C570.658 168.408 571.363 169.086 571.732 169.94C572.101 170.795 572.103 171.756 571.738 172.612C571.373 173.468 570.67 174.149 569.785 174.505C568.9 174.861 567.905 174.863 567.018 174.511V174.511Z" fill="#CCCCCC"/>
<path d="M547.502 288.398L329.096 201.55C328.657 201.375 328.258 201.119 327.922 200.795C327.585 200.472 327.318 200.087 327.136 199.664C326.953 199.241 326.859 198.787 326.858 198.329C326.857 197.87 326.949 197.416 327.13 196.992C327.311 196.569 327.576 196.183 327.911 195.858C328.247 195.534 328.645 195.276 329.083 195.099C329.521 194.923 329.991 194.832 330.466 194.831C330.94 194.83 331.411 194.919 331.85 195.094L550.255 281.942C551.142 282.295 551.847 282.973 552.216 283.827C552.585 284.682 552.587 285.643 552.221 286.499C551.856 287.355 551.154 288.036 550.269 288.392C549.384 288.748 548.388 288.75 547.502 288.398V288.398Z" fill="#CCCCCC"/>
<path d="M485.273 289.66L319.612 223.786C319.173 223.611 318.774 223.355 318.438 223.031C318.101 222.708 317.834 222.324 317.652 221.9C317.469 221.477 317.375 221.023 317.374 220.565C317.373 220.107 317.465 219.652 317.646 219.229C317.827 218.805 318.092 218.419 318.427 218.095C318.762 217.77 319.16 217.512 319.599 217.336C320.037 217.159 320.507 217.068 320.982 217.067C321.456 217.066 321.927 217.156 322.366 217.33L488.027 283.205C488.466 283.379 488.865 283.636 489.201 283.959C489.538 284.283 489.805 284.667 489.988 285.09C490.17 285.513 490.265 285.967 490.266 286.425C490.267 286.884 490.174 287.338 489.993 287.762C489.812 288.186 489.547 288.571 489.212 288.896C488.877 289.221 488.479 289.479 488.041 289.655C487.602 289.831 487.132 289.922 486.658 289.923C486.183 289.924 485.712 289.835 485.273 289.66V289.66Z" fill="#CCCCCC"/>
<path d="M528.534 332.87L310.128 246.022C309.242 245.669 308.536 244.991 308.168 244.137C307.799 243.282 307.797 242.321 308.162 241.465C308.527 240.609 309.229 239.928 310.115 239.572C311 239.216 311.995 239.214 312.882 239.566L531.287 326.414C532.174 326.767 532.879 327.445 533.248 328.3C533.616 329.154 533.618 330.115 533.253 330.972C532.888 331.828 532.186 332.509 531.301 332.865C530.416 333.221 529.42 333.223 528.534 332.87Z" fill="#CCCCCC"/>
<path d="M519.05 355.106L300.644 268.258C299.758 267.905 299.052 267.227 298.684 266.373C298.315 265.518 298.313 264.557 298.678 263.701C299.043 262.845 299.745 262.164 300.631 261.808C301.516 261.452 302.511 261.45 303.398 261.802L521.803 348.651C522.242 348.825 522.641 349.082 522.978 349.405C523.314 349.729 523.581 350.113 523.764 350.536C523.946 350.959 524.041 351.413 524.042 351.871C524.043 352.33 523.95 352.784 523.769 353.208C523.588 353.632 523.323 354.017 522.988 354.342C522.653 354.667 522.255 354.924 521.817 355.101C521.378 355.277 520.908 355.368 520.434 355.369C519.959 355.37 519.489 355.281 519.05 355.106V355.106Z" fill="#CCCCCC"/>
<path d="M412.501 353.454C416.872 353.678 421.255 353.549 425.604 353.068C429.52 352.626 433.599 352.018 437.032 350.03C438.516 349.212 439.78 348.068 440.72 346.69C441.661 345.312 442.251 343.739 442.443 342.099C442.595 340.539 442.228 338.973 441.397 337.628C440.565 336.283 439.312 335.228 437.818 334.616C436.303 334 434.643 333.791 433.014 334.011C431.386 334.231 429.849 334.873 428.567 335.868C427.198 337.016 426.115 338.448 425.398 340.057C424.682 341.665 424.351 343.41 424.431 345.159C424.611 352.344 430.499 359.44 437.036 362.428C444.399 365.795 454.455 362.934 456.341 354.644C456.733 352.92 454.301 352.321 453.284 353.429C451.896 354.907 451.144 356.84 451.183 358.835C451.222 360.829 452.048 362.735 453.492 364.161C454.937 365.587 456.891 366.427 458.955 366.509C461.019 366.592 463.038 365.91 464.599 364.603L461.862 363.514C462.658 366.733 464.317 369.692 466.673 372.095C469.029 374.498 471.999 376.259 475.284 377.202C476.905 377.671 478.586 377.918 480.278 377.936C482.334 377.942 484.446 378.938 486.413 379.557L500.584 384.015C502.669 384.671 503.991 381.615 501.89 380.954L489.055 376.917C486.916 376.244 484.783 375.553 482.638 374.898C481.104 374.43 479.426 374.684 477.826 374.408C474.832 373.861 472.061 372.504 469.836 370.494C467.611 368.484 466.024 365.906 465.258 363.058C465.212 362.775 465.09 362.508 464.906 362.283C464.722 362.057 464.481 361.882 464.206 361.773C463.931 361.663 463.632 361.624 463.337 361.659C463.042 361.693 462.761 361.8 462.521 361.97C461.625 362.793 460.427 363.242 459.19 363.217C457.952 363.193 456.775 362.697 455.914 361.839C455.053 360.98 454.579 359.828 454.594 358.633C454.608 357.437 455.112 356.297 455.994 355.458L452.937 354.243C451.72 359.59 444.965 361.597 440.096 360.051C434.65 358.321 429.97 353.289 428.346 348.018C427.912 346.752 427.753 345.412 427.878 344.084C428.004 342.755 428.412 341.466 429.077 340.297C429.67 339.23 430.595 338.37 431.72 337.838C432.846 337.305 434.117 337.127 435.353 337.329C436.457 337.479 437.457 338.038 438.142 338.887C438.827 339.736 439.144 340.81 439.025 341.88C438.843 343.084 438.358 344.227 437.612 345.207C436.865 346.188 435.881 346.976 434.744 347.503C431.68 349.091 428.01 349.486 424.606 349.847C420.725 350.255 416.816 350.362 412.917 350.168C410.729 350.061 410.29 353.347 412.501 353.454L412.501 353.454Z" fill="#6C63FF"/>
<path d="M646.794 260.307V523.307H159.672V212.734H235.901L306.19 260.307H646.794Z" fill="white"/>
<path d="M388.359 473.939H189.42V489.198H388.359V473.939Z" fill="#7C7B7B"/>
<path d="M288.889 444.317H189.42V459.577H288.889V444.317Z" fill="#7C7B7B"/>
<path d="M647.723 524.205H158.742V211.836H236.194L306.487 259.41H647.723V524.205ZM160.601 522.41H645.864V261.205H305.9L235.607 213.631H160.601V522.41Z" fill="#3F3D56"/>
<path d="M845.16 492.462L828.678 498.149L798.113 439.468L822.44 431.074L845.16 492.462Z" fill="#9F616A"/>
<path d="M801.928 524.777L801.687 524.129C799.733 518.831 800.036 513.001 802.528 507.918C805.02 502.835 809.499 498.914 814.981 497.016L847.441 485.814L855.075 506.438L801.928 524.777Z" fill="#2F2E41"/>
<path d="M737.978 508.202H720.475L712.148 443.012L737.981 443.013L737.978 508.202Z" fill="#9F616A"/>
<path d="M742.442 524.586L686.003 524.584V523.894C686.003 521.109 686.571 518.351 687.675 515.777C688.779 513.204 690.397 510.865 692.437 508.896C694.477 506.926 696.899 505.364 699.564 504.298C702.229 503.232 705.086 502.683 707.971 502.683H707.972L742.443 502.685L742.442 524.586Z" fill="#2F2E41"/>
<path d="M777.87 91.7237L770.257 77.1999C770.257 77.1999 741.899 84.0601 739.321 99.9299L777.87 91.7237Z" fill="black"/>
<path d="M809.28 257.792L788.578 369.337L843.545 463.2L810.707 475.606L755.026 384.621L747.887 359.806L743.604 489.392L713.989 488.524L700.41 367.522L722.188 255.036L809.28 257.792Z" fill="#7C7B7B"/>
<path d="M804.995 207.397L804.279 141.987C804.279 114.266 785.384 93.8331 782.765 91.943C781.532 88.1452 779.321 85.5201 776.194 84.1463C769.896 81.3899 762.192 84.6975 761.866 84.8463L738.757 93.2118L738.648 93.5181C738.403 94.2181 715.085 168.099 709.231 186.641C708.397 189.301 707.917 190.824 707.917 190.824C707.917 190.824 708.007 195.112 708.17 201.78C708.687 224.706 709.91 275.774 710.4 277.918C710.4 277.918 753.085 284.166 769.986 284.166C800.392 284.166 819.704 278.548 820.139 278.452L820.837 278.312L804.995 207.397Z" fill="#7C7B7B"/>
<path d="M761.599 68.93C776.74 60.9386 782.304 42.609 774.028 27.9899C765.751 13.3708 746.768 7.99804 731.628 15.9895C716.487 23.981 710.923 42.3105 719.199 56.9296C727.476 71.5487 746.459 76.9215 761.599 68.93Z" fill="#9F616A"/>
<path opacity="0.2" d="M750.076 193.554L708.17 201.78C708.007 195.112 707.917 190.824 707.917 190.824C707.917 190.824 708.397 189.301 709.231 186.641L750.076 193.554Z" fill="black"/>
<path d="M625.979 184.932C627.467 186.164 629.217 187.066 631.105 187.574C632.993 188.083 634.973 188.185 636.907 187.874C638.84 187.564 640.68 186.848 642.295 185.776C643.911 184.705 645.264 183.305 646.259 181.674L692.971 190.734L683.679 168.575L640.744 163.369C637.796 161.937 634.407 161.599 631.218 162.419C628.029 163.239 625.262 165.16 623.442 167.818C621.622 170.476 620.875 173.686 621.343 176.84C621.81 179.995 623.46 182.874 625.979 184.932V184.932Z" fill="#9F616A"/>
<path d="M681.308 167.244L664.483 164.999L658.87 187.572L680.11 188.746L681.308 167.244Z" fill="black"/>
<path d="M675.554 162.893L725.337 157.56L751.75 112.314C754.479 107.638 758.878 104.08 764.124 102.306C769.371 100.532 775.107 100.663 780.262 102.673C785.416 104.684 789.637 108.437 792.135 113.232C794.634 118.027 795.239 123.536 793.839 128.73L793.687 129.292L749.288 191.841L666.271 195.795L675.554 162.893Z" fill="#7C7B7B"/>
<path d="M773.225 68.6517L747.294 69.5505C745.713 69.6052 741.423 53.1337 740.861 49.7167C740.418 47.4921 739.15 45.4996 737.296 44.1113C735.442 42.7229 733.128 42.0338 730.786 42.1724C728.845 42.3495 723.95 38.8478 718.899 34.7014C709.31 26.8295 709.808 12.0448 720.342 5.393C720.63 5.2112 720.913 5.0452 721.19 4.895C727.836 1.30355 735.61 0.0974987 743.225 0.00552952C750.128 -0.0778406 757.227 0.761104 763.308 3.91599C774.211 9.57204 780.014 21.9321 780.523 33.8726C781.033 45.8132 777.069 57.4889 772.57 68.6222" fill="#2F2E41"/>
<path d="M884.07 526H0.929622C0.683071 526 0.446617 525.905 0.272279 525.737C0.0979413 525.569 0 525.34 0 525.102C0 524.864 0.0979413 524.636 0.272279 524.468C0.446617 524.299 0.683071 524.205 0.929622 524.205H884.07C884.317 524.205 884.553 524.299 884.728 524.468C884.902 524.636 885 524.864 885 525.102C885 525.34 884.902 525.569 884.728 525.737C884.553 525.905 884.317 526 884.07 526Z" fill="#CBCBCB"/>
<path d="M407 412C434.614 412 457 389.39 457 361.5C457 333.61 434.614 311 407 311C379.386 311 357 333.61 357 361.5C357 389.39 379.386 412 407 412Z" fill="#7C7B7B"/>
<path d="M293 52.6779V30.0715H281.534V52.6779H276.181L281.723 62.4251L287.267 72.1739L292.811 62.4251L298.354 52.6764L293 52.6779Z" fill="#7C7B7B"/>
<path d="M415.515 365.679V334H399.484V365.679H392L399.749 379.339L407.499 393L415.25 379.339L423 365.677L415.515 365.679Z" fill="white"/>
</svg>
