<svg width="435" height="583" viewBox="0 0 435 583" fill="none" xmlns="http://www.w3.org/2000/svg">
<rect width="435" height="583" fill="#CBE8EA"/>
<path d="M434.082 341.161C434.082 441.001 374.609 475.862 301.245 475.862C227.88 475.862 168.407 441.001 168.407 341.161C168.407 241.32 301.245 114.307 301.245 114.307C301.245 114.307 434.082 241.32 434.082 341.161Z" fill="#F2F2F2"/>
<path d="M296.406 460.589L297.766 377.032L354.384 273.659L297.979 363.924L298.591 326.353L337.612 251.564L298.753 316.41V316.411L299.852 248.838L341.637 189.297L300.026 238.212L300.713 114.307L296.393 278.335L296.748 271.568L254.265 206.672L296.068 284.558L292.109 360.025L291.991 358.022L243.016 289.728L291.842 365.099L291.348 374.536L291.259 374.678L291.299 375.453L281.257 566.92H294.675L296.284 468.023L344.992 392.838L296.406 460.589Z" fill="#3F3D56"/>
<path d="M185.686 582.341C288.238 582.341 371.372 576.155 371.372 568.524C371.372 560.893 288.238 554.707 185.686 554.707C83.1345 554.707 0 560.893 0 568.524C0 576.155 83.1345 582.341 185.686 582.341Z" fill="#3F3D56"/>
<path d="M354.655 545.857C354.655 564.119 343.777 570.495 330.358 570.495C330.047 570.495 329.737 570.492 329.427 570.485C328.805 570.471 328.189 570.442 327.581 570.4C315.47 569.545 306.061 562.841 306.061 545.857C306.061 528.28 328.567 506.102 330.257 504.461L330.26 504.458C330.325 504.394 330.358 504.363 330.358 504.363C330.358 504.363 354.655 527.595 354.655 545.857Z" fill="#7C7B7B"/>
<path d="M329.473 567.701L338.359 555.309L329.451 569.062L329.427 570.485C328.805 570.471 328.189 570.442 327.581 570.4L328.539 552.13L328.531 551.988L328.547 551.961L328.638 550.236L319.707 536.449L328.666 548.942L328.687 549.308L329.411 535.503L321.764 521.257L329.504 533.081L330.257 504.461L330.26 504.363V504.458L330.134 527.026L337.746 518.079L330.103 528.97L329.902 541.33L337.009 529.468L329.872 543.149L329.76 550.02L340.078 533.51L329.721 552.418L329.473 567.701Z" fill="black"/>
<path d="M138.635 532.185L133.437 528.332C133.437 528.332 129.997 547.51 133.836 550.384C137.675 553.257 152.071 558.046 152.071 563.793C152.071 569.54 184.703 577.203 185.663 568.582C186.623 559.962 182.784 555.173 182.784 555.173C182.784 555.173 167.427 539.848 165.508 536.974C163.588 534.101 158.79 528.354 158.79 528.354L138.635 532.185Z" fill="#2F2E41"/>
<path d="M215.415 293.688C215.415 293.688 215.271 294.531 215.022 296.073C214.791 297.442 214.475 299.377 214.091 301.762C210.06 326.311 198.303 398.579 199.099 400.964C200.059 403.837 206.777 414.373 199.099 417.247C198.36 417.524 197.564 418.425 196.71 419.842C195.061 422.896 193.702 426.096 192.65 429.401C188.072 442.658 183.177 463.873 180.346 478.566C179.108 485.022 178.263 490.213 178.014 492.934C177.927 493.562 177.917 494.199 177.985 494.83C178.944 498.661 172.226 512.071 169.347 515.902C166.468 519.733 161.669 523.565 162.629 527.396C163.588 531.227 138.635 541.763 135.756 535.059C132.876 528.354 132.876 524.523 131.917 522.607C130.957 520.691 129.997 507.282 134.796 505.366C139.595 503.45 136.715 469.927 141.514 463.222C143.117 460.99 145.564 453.433 148.127 444.343C149.134 440.78 150.152 436.987 151.15 433.185C155.2 417.601 158.79 401.922 158.79 401.922L157.83 289.857L210.616 283.152L211.97 286.131L214.667 292.04L215.415 293.688Z" fill="#2F2E41"/>
<path d="M218.294 477.589C218.294 477.589 225.972 469.927 229.811 477.589C233.65 485.252 237.489 514.945 244.208 521.649C250.926 528.354 259.564 561.878 249.966 563.793C240.369 565.709 229.811 560.92 228.852 555.173C227.892 549.426 207.737 519.734 207.737 516.86C207.737 513.987 221.174 503.451 221.174 503.451L218.294 477.589Z" fill="#2F2E41"/>
<path d="M100.245 241.008C100.245 241.008 112.722 353.073 115.601 363.609C118.48 374.145 133.836 414.373 138.635 421.078C143.434 427.783 174.146 482.378 177.985 485.252C181.824 488.125 189.502 495.788 189.502 495.788C189.502 495.788 203.898 510.155 205.818 513.029C207.737 515.902 224.053 507.282 225.013 501.535C225.972 495.788 224.053 486.21 223.093 482.378C222.133 478.547 225.013 472.8 222.133 469.927C219.254 467.053 204.858 452.686 204.858 445.981C204.858 439.277 179.904 400.006 170.307 391.385C160.709 382.765 162.629 368.398 162.629 368.398V309.971L215.415 293.688C215.415 293.688 212.536 247.712 205.818 247.712C199.099 247.712 110.802 232.387 100.245 241.008Z" fill="#2F2E41"/>
<path d="M177.985 81.0517C195.477 81.0517 209.657 66.9002 209.657 49.4436C209.657 31.9869 195.477 17.8355 177.985 17.8355C160.493 17.8355 146.313 31.9869 146.313 49.4436C146.313 66.9002 160.493 81.0517 177.985 81.0517Z" fill="#9F616A"/>
<path d="M167.427 74.3469C167.427 74.3469 163.588 88.7143 158.79 92.5455C153.991 96.3768 171.266 112.66 171.266 112.66L203.898 114.575L209.657 96.3768C209.657 96.3768 199.099 75.3048 201.979 61.8953C204.858 48.4858 167.427 74.3469 167.427 74.3469Z" fill="#9F616A"/>
<path d="M153.991 90.6299C153.991 90.6299 162.629 91.5877 164.548 94.4612C166.468 97.3346 179.904 105.955 190.462 104.039C201.019 102.124 207.737 99.2503 209.657 100.208C211.576 101.166 215.415 121.28 215.415 121.28L204.858 151.93L206.777 236.219L209.657 259.206C209.657 259.206 215.415 251.544 192.381 256.333C169.347 261.122 139.595 252.502 129.997 251.544C120.4 250.586 104.084 247.712 103.124 241.966C102.164 236.219 106.003 215.147 106.003 215.147L121.359 150.973L130.957 116.491L153.991 90.6299Z" fill="white"/>
<path d="M163.069 86.3068C163.069 86.3068 154.951 82.0095 152.071 85.8408C149.192 89.672 112.721 95.419 112.721 98.2924C112.721 101.166 105.043 178.749 106.963 185.454C108.882 192.159 103.124 199.821 103.124 199.821L96.4056 228.556C96.4056 228.556 78.1703 283.152 85.8483 285.067C93.5264 286.983 100.245 285.067 103.124 285.067C106.003 285.067 105.043 248.67 112.721 239.092C120.399 229.514 130.957 205.568 132.876 200.779C134.796 195.99 158.79 129.9 157.83 122.238C156.87 114.575 163.069 86.3068 163.069 86.3068Z" fill="#7C7B7B"/>
<path d="M202.938 90.6299C202.938 90.6299 210.616 90.6299 211.576 92.5455C212.536 94.4612 222.133 106.913 225.972 109.786C229.811 112.66 243.248 125.111 243.248 127.985C243.248 130.858 215.415 151.93 215.415 151.93C215.415 151.93 203.898 208.442 209.657 227.598C215.415 246.755 224.053 292.73 220.214 295.603C216.375 298.477 207.737 299.435 207.737 295.603C207.737 291.772 201.979 250.586 197.18 241.965C192.381 233.345 177.985 178.749 183.743 163.424C189.502 148.099 202.938 90.6299 202.938 90.6299Z" fill="#7C7B7B"/>
<path d="M76.2509 185.454C76.2509 185.454 75.2912 215.147 85.8484 230.472C96.4057 245.797 103.124 263.038 103.124 263.038C103.124 263.038 120.4 258.248 123.279 252.502C126.158 246.755 144.393 251.544 144.393 249.628C144.393 247.712 122.319 238.134 120.4 236.219C118.48 234.303 111.762 234.303 107.923 230.472C104.084 226.64 103.124 218.02 103.124 218.02L99.285 193.117L76.2509 185.454Z" fill="#9F616A"/>
<path d="M156.171 29.9547C153.734 29.7338 151.221 29.4908 149.068 28.3318C144.243 25.7349 142.963 18.3397 146.636 14.2784C147.649 13.2451 148.782 12.3361 150.011 11.5707L157.306 6.61513C160.533 4.42337 163.835 2.1957 167.599 1.16248C171.003 0.227951 174.598 0.323984 178.121 0.542554C184.961 0.966821 191.843 1.84322 198.277 4.20003C204.71 6.55684 210.711 10.4997 214.607 16.1261C220.784 25.0456 220.869 37.0752 217.467 47.3723C214.065 57.6694 207.603 66.6361 201.235 75.4211L197.931 59.3324C197.637 57.8994 197.256 56.3289 196.062 55.4808C193.094 53.3729 189.463 57.7008 185.82 57.6727C183.48 57.6547 181.514 55.7334 180.627 53.5716C179.74 51.4098 179.682 49.0158 179.477 46.6887C179.042 41.7599 177.316 34.9018 172.639 32.1836C168.281 29.6506 161.07 30.3988 156.171 29.9547Z" fill="#2F2E41"/>
<path opacity="0.1" d="M157.948 294.461C157.948 294.461 161.189 388.033 163.109 390.907C165.028 393.78 163.109 294.167 163.109 294.167L157.948 294.461Z" fill="black"/>
<path d="M120.4 98.2924H112.722C112.722 98.2924 80.0899 142.352 83.9289 145.226C87.768 148.099 83.9289 155.762 83.9289 155.762L76.2509 170.129C76.2509 170.129 66.6533 178.749 69.5326 180.665C72.4119 182.581 76.2509 190.243 76.2509 190.243C76.2509 190.243 95.446 187.37 101.204 198.864L113.652 183.181L120.4 98.2924Z" fill="#7C7B7B"/>
<path d="M207.737 180.665C207.737 180.665 186.623 181.623 162.629 166.298L138.635 155.762C138.635 155.762 117.52 123.196 115.601 128.943C113.681 134.69 118.48 146.184 118.48 146.184C118.48 146.184 89.5237 159.557 88.771 161.325C88.0183 163.093 105.043 158.635 105.043 158.635C105.043 158.635 102.164 176.834 118.48 177.792C134.796 178.749 139.595 174.918 139.595 174.918C139.595 174.918 208.697 232.387 220.214 214.189C231.731 195.99 207.737 180.665 207.737 180.665Z" fill="#9F616A"/>
<path d="M232.691 124.154L243.248 127.985V156.72L247.087 162.466C247.087 162.466 246.127 173.96 243.248 176.834C240.369 179.707 234.61 178.749 236.53 185.454C237.683 189.825 238.009 194.373 237.49 198.864C237.49 198.864 220.214 220.893 219.254 218.02C218.294 215.147 204.858 179.707 202.938 179.707C201.019 179.707 222.133 124.154 222.133 124.154H232.691Z" fill="#7C7B7B"/>
<path d="M106.483 269.263C106.483 269.263 96.5596 259.685 101.521 259.206C106.483 258.727 123.759 249.149 126.638 253.938C129.517 258.727 106.483 269.263 106.483 269.263Z" fill="#2F2E41"/>
</svg>
