<svg width="468" height="492" viewBox="0 0 468 492" fill="none" xmlns="http://www.w3.org/2000/svg">
<rect width="468" height="492" fill="#CBE8EA"/>
<path d="M71.9241 311.916V315.256C71.9289 320.792 74.1302 326.1 78.0448 330.015C81.9594 333.929 87.2673 336.131 92.8034 336.135H269.859C275.396 336.133 280.706 333.933 284.621 330.018C288.536 326.103 290.736 320.793 290.738 315.256V311.916C290.749 307.03 289.033 302.297 285.894 298.553C284.849 297.31 283.667 296.189 282.37 295.212H190.534C189.427 295.212 188.365 294.772 187.582 293.989C186.799 293.206 186.359 292.144 186.359 291.036H92.8034C87.2682 291.044 81.9619 293.246 78.048 297.16C74.134 301.074 71.9318 306.38 71.9241 311.916V311.916Z" fill="#768FA7"/>
<path d="M169.647 488.977H191.361L191.361 335.306H169.647L169.647 488.977Z" fill="#768FA7"/>
<path d="M107.844 488.214C107.844 490.561 140.749 489.122 181.339 489.122C221.929 489.122 254.834 490.561 254.834 488.214C254.834 485.868 221.929 467.263 181.339 467.263C140.749 467.263 107.844 485.868 107.844 488.214Z" fill="#768FA7"/>
<path d="M291.895 469.414L312.639 469.413L322.507 389.403L291.891 389.404L291.895 469.414Z" fill="#A0616A"/>
<path d="M286.604 462.642L327.455 462.64H327.457C334.361 462.64 340.983 465.383 345.865 470.265C350.747 475.147 353.49 481.769 353.49 488.673V489.519L286.605 489.521L286.604 462.642Z" fill="#2F2E41"/>
<path d="M211.599 426.92L194.793 439.08L139.894 380.045L164.698 362.099L211.599 426.92Z" fill="#A0616A"/>
<path d="M247.162 76.1749C257.896 56.5389 250.68 31.919 231.043 21.185C211.407 10.4509 186.788 17.6674 176.054 37.3035C165.319 56.9396 172.536 81.5594 192.172 92.2934C211.808 103.027 236.428 95.811 247.162 76.1749Z" fill="#A0616A"/>
<path d="M201.405 305.324C201.696 303.023 202.487 300.813 203.723 298.851C204.96 296.889 206.612 295.221 208.562 293.966C210.513 292.711 212.715 291.899 215.013 291.588C217.312 291.276 219.651 291.472 221.865 292.162L245.09 264.321L265.45 274.308L232.101 313.164C230.695 316.807 228.002 319.809 224.532 321.599C221.061 323.389 217.054 323.844 213.271 322.878C209.487 321.912 206.189 319.591 204.002 316.356C201.816 313.12 200.891 309.195 201.405 305.324V305.324Z" fill="#A0616A"/>
<path d="M217.82 281.715L254.255 232.528L245.23 183.794L259.872 128.889L260.24 128.731C260.536 128.604 267.543 125.652 272.877 127.864C273.968 128.315 274.954 128.986 275.773 129.837C276.591 130.687 277.224 131.698 277.633 132.806C281.257 141.868 289.996 234.162 290.366 238.246C290.292 238.992 288.498 256.595 284.849 263.891C281.218 271.154 248.095 307.8 246.687 309.358L246.105 310.001L217.82 281.715Z" fill="#3F3D56"/>
<path d="M246.415 46.3101C232.927 63.2735 209.81 60.165 191.314 53.9576C192.39 67.5374 188.702 81.068 180.885 92.2242C183.274 82.6022 173.211 80.6874 167.34 77.1092C165.079 74.2476 166.957 69.9767 166.029 66.4504C155.486 54.0892 148.5 44.7633 162.033 30.2579C169.956 19.653 179.465 6.41243 194.559 9.19803C206.503 -4.73504 226.075 -1.11138 239.43 8.63488C245.434 13.0773 250.895 18.2095 255.702 23.9259C254.165 31.4481 251.303 38.6372 247.25 45.1576" fill="#2F2E41"/>
<path d="M466.362 492H1.22084C0.897056 492 0.586528 491.871 0.357576 491.642C0.128623 491.413 0 491.103 0 490.779C0 490.455 0.128623 490.145 0.357576 489.916C0.586528 489.687 0.897056 489.558 1.22084 489.558H466.362C466.686 489.558 466.997 489.687 467.226 489.916C467.454 490.145 467.583 490.455 467.583 490.779C467.583 491.103 467.454 491.413 467.226 491.642C466.997 491.871 466.686 492 466.362 492Z" fill="#3F3D56"/>
<path d="M235.642 327.647H189.38C191.114 306.302 196.707 286.369 189.38 272.133H235.642C244.352 290.638 244.352 309.143 235.642 327.647Z" fill="#6C63FF"/>
<path d="M215.428 317.168C215.138 314.867 214.347 312.657 213.11 310.695C211.874 308.732 210.222 307.065 208.271 305.81C206.321 304.555 204.118 303.743 201.82 303.432C199.522 303.12 197.183 303.316 194.968 304.005L171.744 276.165L151.383 286.152L184.733 325.008C186.138 328.651 188.831 331.652 192.302 333.443C195.772 335.233 199.779 335.688 203.563 334.722C207.346 333.756 210.644 331.435 212.831 328.199C215.018 324.964 215.942 321.039 215.428 317.168V317.168Z" fill="#A0616A"/>
<path d="M170.413 312.181C168.336 310.623 119.48 273.901 114.022 262.986C108.555 252.051 109.91 219.674 109.981 218.201C110.066 217.692 118.572 167.094 125.767 149.107C133.232 130.445 152.008 137.704 152.197 137.78L152.764 138.007L144.589 233.392L189.184 292.551L171.015 312.632L170.413 312.181Z" fill="#3F3D56"/>
<path d="M71.9241 311.916V315.256C71.9289 320.792 74.1302 326.1 78.0448 330.015C81.9594 333.929 87.2673 336.131 92.8034 336.135H269.859C275.396 336.133 280.706 333.933 284.621 330.018C288.536 326.103 290.736 320.793 290.738 315.256V311.916C290.749 307.03 289.033 302.297 285.894 298.553C284.849 297.31 283.667 296.189 282.37 295.212H190.534C189.427 295.212 188.365 294.772 187.582 293.989C186.799 293.206 186.359 292.144 186.359 291.036H92.8034C87.2682 291.044 81.9619 293.246 78.048 297.16C74.134 301.074 71.9318 306.38 71.9241 311.916V311.916Z" fill="#768FA7"/>
<path d="M169.647 488.977H191.361L191.361 335.306H169.647L169.647 488.977Z" fill="#768FA7"/>
<path d="M107.844 488.214C107.844 490.561 140.749 489.122 181.339 489.122C221.929 489.122 254.834 490.561 254.834 488.214C254.834 485.868 221.929 467.263 181.339 467.263C140.749 467.263 107.844 485.868 107.844 488.214Z" fill="#768FA7"/>
<path d="M291.895 469.414L312.639 469.413L322.507 389.403L291.891 389.404L291.895 469.414Z" fill="#A0616A"/>
<path d="M286.604 462.642L327.455 462.64H327.457C334.361 462.64 340.983 465.383 345.865 470.265C350.747 475.147 353.49 481.769 353.49 488.673V489.519L286.605 489.521L286.604 462.642Z" fill="#2F2E41"/>
<path d="M211.599 426.92L194.793 439.08L139.894 380.045L164.698 362.099L211.599 426.92Z" fill="#A0616A"/>
<path d="M227.672 440.109L173.484 479.317L172.988 478.632C168.941 473.038 167.282 466.066 168.375 459.248C169.468 452.431 173.224 446.327 178.818 442.28L178.819 442.279L211.915 418.332L227.672 440.109Z" fill="#2F2E41"/>
<path d="M234.302 115.905C234.302 115.905 212.539 99.6037 189.007 115.905L172.72 251.749H221.623L228.868 208.279L245.17 143.074L234.302 115.905Z" fill="#4E4E4E"/>
<path d="M283.295 325.706L195.526 297.046L153.684 330.249L198.134 398.203L174.885 428.693L174.22 427.936C171.336 424.651 103.581 347.222 103.777 325.261C103.972 303.484 111.187 281.592 111.26 281.373L133.269 250.133L164.507 240.946L267.925 255.46L268.094 255.485L309.879 280.917C314.013 283.574 317.499 287.125 320.077 291.308C322.656 295.492 324.263 300.201 324.779 305.089C326.573 321.238 330.181 450.565 330.217 451.87L330.241 452.718H285.11L283.295 325.706Z" fill="#7C7B7B"/>
<path d="M227.628 293.257C212.373 286.477 192.891 260.005 189.681 255.541C183.404 258.958 137.629 283.423 124.724 277.133C122.85 278.167 114.377 283.223 112.851 290.851L112.469 292.765L111.363 291.157C111.159 290.861 91.2775 261.299 116.997 242.926C140.448 226.176 146.757 209.254 147.418 207.318L134.694 140.063L135.027 139.753C136.071 138.784 160.842 115.992 183.444 113.282L197.386 110.824L197.996 163.903V231.855C209.262 230.439 227.084 111.707 227.084 111.707L236.397 115.12C238.804 115.581 265.848 120.983 273.025 131.749L273.258 132.098L248.66 198.603L241.466 209.434V223.298L283.494 259.844L282.897 260.469C281.464 261.969 250.474 294.202 232.421 294.197C230.775 294.224 229.142 293.904 227.628 293.257V293.257Z" fill="#7C7B7B"/>
<path d="M247.162 76.1749C257.896 56.5389 250.68 31.919 231.043 21.185C211.407 10.4509 186.788 17.6674 176.054 37.3035C165.319 56.9396 172.536 81.5594 192.172 92.2934C211.808 103.027 236.428 95.811 247.162 76.1749Z" fill="#A0616A"/>
<path d="M201.405 305.324C201.696 303.023 202.487 300.813 203.723 298.851C204.96 296.889 206.612 295.221 208.562 293.966C210.513 292.711 212.715 291.899 215.013 291.588C217.312 291.276 219.651 291.472 221.865 292.162L245.09 264.321L265.45 274.308L232.101 313.164C230.695 316.807 228.002 319.809 224.532 321.599C221.061 323.389 217.054 323.844 213.271 322.878C209.487 321.912 206.189 319.591 204.002 316.356C201.816 313.12 200.891 309.195 201.405 305.324V305.324Z" fill="#A0616A"/>
<path d="M217.82 281.715L254.255 232.528L245.23 183.794L259.872 128.889L260.24 128.731C260.536 128.604 267.543 125.652 272.877 127.864C273.968 128.315 274.954 128.986 275.773 129.837C276.591 130.687 277.224 131.698 277.633 132.806C281.257 141.868 289.996 234.162 290.366 238.246C290.292 238.992 288.498 256.595 284.849 263.891C281.218 271.154 248.095 307.8 246.687 309.358L246.105 310.001L217.82 281.715Z" fill="#7C7B7B"/>
<path d="M246.415 46.3101C232.927 63.2735 209.81 60.165 191.314 53.9576C192.39 67.5374 188.702 81.068 180.885 92.2242C183.274 82.6022 173.211 80.6874 167.34 77.1092C165.079 74.2476 166.957 69.9767 166.029 66.4504C155.486 54.0892 148.5 44.7633 162.033 30.2579C169.956 19.653 179.465 6.41243 194.559 9.19803C206.503 -4.73504 226.075 -1.11138 239.43 8.63488C245.434 13.0773 250.895 18.2095 255.702 23.9259C254.165 31.4481 251.303 38.6372 247.25 45.1576" fill="#2F2E41"/>
<path d="M466.362 492H1.22084C0.897056 492 0.586528 491.871 0.357576 491.642C0.128623 491.413 0 491.103 0 490.779C0 490.455 0.128623 490.145 0.357576 489.916C0.586528 489.687 0.897056 489.558 1.22084 489.558H466.362C466.686 489.558 466.997 489.687 467.226 489.916C467.454 490.145 467.583 490.455 467.583 490.779C467.583 491.103 467.454 491.413 467.226 491.642C466.997 491.871 466.686 492 466.362 492Z" fill="#3F3D56"/>
<path d="M235.642 327.647H189.38C191.114 306.302 196.707 286.369 189.38 272.133H235.642C244.352 290.638 244.352 309.143 235.642 327.647Z" fill="#4E4E4E"/>
<path d="M215.428 317.168C215.138 314.867 214.347 312.657 213.11 310.695C211.874 308.732 210.222 307.065 208.271 305.81C206.321 304.555 204.118 303.743 201.82 303.432C199.522 303.12 197.183 303.316 194.968 304.005L171.744 276.165L151.383 286.152L184.733 325.008C186.138 328.651 188.831 331.652 192.302 333.443C195.772 335.233 199.779 335.688 203.563 334.722C207.346 333.756 210.644 331.435 212.831 328.199C215.018 324.964 215.942 321.039 215.428 317.168V317.168Z" fill="#A0616A"/>
<path d="M170.413 312.181C168.336 310.623 119.48 273.901 114.022 262.986C108.555 252.051 109.91 219.674 109.981 218.201C110.066 217.692 118.572 167.094 125.767 149.107C133.232 130.445 152.008 137.704 152.197 137.78L152.764 138.007L144.589 233.392L189.184 292.551L171.015 312.632L170.413 312.181Z" fill="#7C7B7B"/>
</svg>
